<svg xmlns="http://www.w3.org/2000/svg" xmlns:xlink="http://www.w3.org/1999/xlink" width="1024" zoomAndPan="magnify" viewBox="0 0 768 767.999994" height="1024" preserveAspectRatio="xMidYMid meet" version="1.0"><path fill="#1E8022" d="M 355.527344 319.992188 C 357.839844 318.410156 372.90625 308.058594 362.699219 305.910156 C 361.132812 305.582031 359.59375 306.113281 358.746094 307.519531 C 323.15625 366.652344 301.785156 434.617188 258.804688 489.351562 C 256.464844 492.332031 258.492188 498.660156 263.105469 496.742188 C 300.933594 481.011719 342.503906 477.027344 383.0625 475.492188 C 423.648438 473.957031 464.289062 475.738281 504.863281 473.992188 C 508.882812 473.816406 511.496094 468.753906 508.277344 465.746094 C 484.496094 443.546875 466.023438 416.25 447.835938 389.476562 C 438.894531 376.3125 430.078125 363.0625 420.769531 350.152344 C 413 339.375 405.03125 328.117188 394.949219 319.375 C 390.472656 315.492188 384.667969 321.351562 388.484375 325.84375 C 407.761719 348.535156 424.476562 372.726562 441.261719 397.296875 C 459.328125 423.738281 477.886719 450.667969 501.453125 472.574219 C 502.589844 469.828125 503.730469 467.078125 504.867188 464.332031 C 463.683594 466.191406 422.429688 464.519531 381.238281 466.164062 C 340.082031 467.804688 297.867188 472.191406 259.699219 488.65625 C 261.714844 490.671875 263.730469 492.691406 265.746094 494.707031 C 285.542969 466.671875 302.117188 436.996094 317.417969 406.300781 C 333.242188 374.5625 348.761719 342.691406 364.789062 311.050781 C 363.472656 311.589844 362.15625 312.125 360.835938 312.664062 C 360.058594 309.742188 359.507812 309.15625 359.179688 310.914062 C 358.796875 311.792969 358.371094 312.652344 357.902344 313.492188 C 356.910156 315.363281 355.59375 317.109375 354.402344 318.863281 C 353.941406 319.539062 354.851562 320.453125 355.527344 319.992188 Z M 355.527344 319.992188 " fill-opacity="1" fill-rule="nonzero"/><path fill="#1E8022" d="M 360.878906 305.496094 C 354.308594 303.964844 347.085938 305.761719 340.542969 306.886719 C 332.285156 308.308594 324.0625 310 315.90625 311.9375 C 317.269531 314.28125 318.632812 316.628906 319.996094 318.972656 C 341.492188 294.125 356.203125 264.570312 375.761719 238.320312 C 373.203125 238.320312 370.644531 238.320312 368.085938 238.320312 C 375.433594 251.664062 386.320312 262.929688 397.21875 273.40625 C 408.402344 284.15625 420.429688 294.03125 432.773438 303.402344 C 433.566406 300.484375 434.355469 297.566406 435.144531 294.644531 C 417.980469 296.316406 400.851562 299.160156 383.570312 299.273438 C 380.046875 299.296875 376.839844 303.6875 379.199219 306.898438 C 384.570312 314.214844 388.675781 322 392.652344 330.125 C 395.09375 335.113281 403.394531 331.59375 401.601562 326.351562 C 398.5625 317.460938 393.496094 309.304688 387.945312 301.78125 C 386.488281 304.324219 385.027344 306.867188 383.570312 309.410156 C 400.925781 309.261719 417.945312 305.925781 435.144531 304.046875 C 439.9375 303.523438 441.363281 298.164062 437.515625 295.289062 C 425.71875 286.472656 414.367188 277.070312 403.613281 267.007812 C 393.125 257.195312 382.765625 246.480469 375.765625 233.824219 C 374.003906 230.644531 369.976562 231.277344 368.089844 233.824219 C 349.035156 259.515625 334.804688 288.570312 314.050781 313.019531 C 311.398438 316.144531 313.855469 321.15625 318.140625 320.054688 C 325.613281 318.132812 333.117188 316.375 340.671875 314.808594 C 347.519531 313.386719 355.179688 312.910156 361.417969 309.617188 C 363.121094 308.71875 362.75 305.933594 360.878906 305.496094 Z M 360.878906 305.496094 " fill-opacity="1" fill-rule="nonzero"/><path fill="#1E8022" d="M 260.527344 497.421875 C 266.96875 503.59375 271.476562 511.371094 277.871094 517.542969 C 283.953125 523.414062 290.207031 528.507812 298.046875 531.800781 C 312.148438 537.726562 328.8125 533.460938 343.402344 532.21875 C 389.296875 528.3125 435.824219 532.363281 481.273438 523.53125 C 483.386719 523.121094 484.414062 521.058594 484.613281 519.140625 C 486.519531 500.835938 494.171875 482.714844 506.710938 469.214844 C 510.867188 464.738281 504.378906 458.191406 500.003906 462.5 C 485.097656 477.175781 477.507812 498.683594 475.515625 519.140625 C 476.628906 517.675781 477.742188 516.214844 478.855469 514.75 C 434.949219 523.382812 389.550781 520.140625 345.109375 523.304688 C 330.417969 524.351562 314.605469 528.992188 300.28125 523.695312 C 292.488281 520.816406 285.496094 514.175781 280.003906 508.152344 C 274.605469 502.226562 270.886719 494.425781 262.125 493.574219 C 260.121094 493.378906 259.195312 496.144531 260.527344 497.421875 Z M 260.527344 497.421875 " fill-opacity="1" fill-rule="nonzero"/><path fill="#1E8022" d="M 323.488281 316.972656 C 313.871094 318.738281 322.980469 334.070312 327.683594 336.558594 C 331.804688 338.734375 338.621094 337.808594 343.042969 337.242188 C 346.757812 336.769531 351.492188 336.273438 352.789062 332.128906 C 353.621094 329.488281 351.375 326.601562 348.632812 326.667969 C 346.023438 326.734375 343.25 328.144531 340.625 328.585938 C 336.578125 329.261719 332.664062 328.476562 328.667969 328.730469 C 329.59375 329.113281 330.515625 329.496094 331.4375 329.878906 C 328.898438 327.355469 326.15625 324.460938 325.972656 320.683594 C 325.917969 319.652344 324.9375 316.707031 323.488281 316.972656 Z M 323.488281 316.972656 " fill-opacity="1" fill-rule="nonzero"/><path fill="#1E8022" d="M 394.648438 326.390625 C 399.519531 328.160156 404.828125 327.121094 409.828125 326.367188 C 416.65625 325.339844 423.195312 323.597656 430.152344 323.539062 C 432.542969 323.515625 434.230469 321.632812 434.359375 319.328125 C 434.707031 313.097656 437.988281 307.261719 437.75 301.011719 C 437.570312 296.414062 430.105469 294.925781 429.363281 299.878906 C 428.390625 306.414062 426.144531 312.683594 425.949219 319.328125 C 427.351562 317.925781 428.75 316.519531 430.152344 315.117188 C 424.527344 315.328125 419.054688 316.347656 413.570312 317.574219 C 407.398438 318.953125 400.480469 319.839844 394.644531 322.253906 C 392.6875 323.0625 392.542969 325.628906 394.648438 326.390625 Z M 394.648438 326.390625 " fill-opacity="1" fill-rule="nonzero"/><path fill="#1E8022" d="M 275.6875 494.394531 C 283.738281 504.683594 293.574219 512.949219 297.71875 525.863281 C 298.636719 528.722656 302.914062 530.59375 305.117188 527.820312 C 308.109375 524.058594 308.929688 517.476562 302.765625 516.3125 C 301.585938 516.089844 300.007812 516.40625 299.460938 517.65625 C 299.140625 518.394531 299.007812 521.359375 298.855469 521.554688 C 301.324219 522.207031 303.789062 522.855469 306.257812 523.507812 C 304.035156 516.808594 300.148438 510.910156 295.757812 505.425781 C 291.203125 499.730469 285.796875 493.140625 278.941406 490.171875 C 276.078125 488.929688 273.765625 491.9375 275.6875 494.394531 Z M 275.6875 494.394531 " fill-opacity="1" fill-rule="nonzero"/><path fill="#1E8022" d="M 294.683594 482.582031 C 288.90625 491.414062 296.207031 502.832031 301.191406 510.4375 C 304.210938 515.042969 310.910156 527.429688 317.699219 525.519531 C 319.128906 525.121094 320.195312 523.773438 320.171875 522.269531 C 320.101562 517.351562 313.609375 512.179688 310.585938 508.074219 C 308.558594 505.328125 306.652344 502.523438 304.867188 499.613281 C 302.171875 495.226562 297.582031 489.570312 298.40625 484.152344 C 298.746094 481.917969 296.011719 480.550781 294.683594 482.582031 Z M 294.683594 482.582031 " fill-opacity="1" fill-rule="nonzero"/><path fill="#1E8022" d="M 307.621094 478.582031 C 305.699219 486.046875 309.871094 494.601562 313.035156 501.199219 C 316.875 509.199219 323.019531 517.765625 329.957031 523.335938 C 334.246094 526.773438 340.304688 521.121094 336.132812 517.15625 C 334.339844 515.449219 333.375 513.964844 330.828125 513.679688 C 329.878906 513.574219 329.042969 514.410156 328.78125 515.238281 C 328.140625 517.253906 328.113281 519.425781 328.835938 521.40625 C 331.265625 519.988281 333.699219 518.570312 336.132812 517.15625 C 330.625 511.160156 325.546875 505.425781 321.441406 498.324219 C 317.722656 491.894531 315.878906 484.066406 311.660156 478.054688 C 310.613281 476.5625 308.132812 476.601562 307.621094 478.582031 Z M 307.621094 478.582031 " fill-opacity="1" fill-rule="nonzero"/><path fill="#1E8022" d="M 323.074219 479.351562 C 325.328125 484.644531 336.070312 533.070312 346.886719 522.410156 C 347.988281 521.324219 347.957031 519.628906 346.992188 518.5 C 345.574219 516.835938 346.753906 518.375 347.03125 519.125 C 346.625 518.023438 346.085938 517.53125 345.28125 516.804688 C 342.191406 514.039062 340.667969 508.78125 339.226562 505.058594 C 335.601562 495.703125 333.148438 485.183594 327.488281 476.769531 C 325.605469 473.96875 321.800781 476.367188 323.074219 479.351562 Z M 323.074219 479.351562 " fill-opacity="1" fill-rule="nonzero"/><path fill="#1E8022" d="M 338.242188 478.769531 C 339.632812 487.910156 341.425781 496.894531 344.863281 505.527344 C 346.929688 510.71875 352.871094 524.394531 360.457031 522 C 362.015625 521.507812 362.941406 519.957031 362.527344 518.347656 C 361.824219 515.613281 359.125 514.101562 357.320312 512.058594 C 354.550781 508.921875 352.824219 504.589844 351.34375 500.746094 C 348.378906 493.046875 346.390625 485.035156 343.378906 477.351562 C 342.113281 474.125 337.722656 475.367188 338.242188 478.769531 Z M 338.242188 478.769531 " fill-opacity="1" fill-rule="nonzero"/><path fill="#1E8022" d="M 353.769531 478.769531 C 356.640625 486.722656 358.414062 495.015625 361.144531 503.015625 C 363.332031 509.441406 366.582031 517.050781 373.273438 519.78125 C 376.734375 521.195312 378.984375 516.214844 376.714844 513.863281 C 371.804688 508.777344 369.285156 503.675781 367.0625 496.921875 C 364.789062 490.003906 362.878906 482.734375 358.640625 476.714844 C 357.007812 474.398438 352.675781 475.742188 353.769531 478.769531 Z M 353.769531 478.769531 " fill-opacity="1" fill-rule="nonzero"/><path fill="#1E8022" d="M 371.789062 475.839844 C 372.492188 484.210938 374.371094 491.824219 377.597656 499.601562 C 380.523438 506.652344 383.898438 515.015625 389.304688 520.554688 C 392.316406 523.640625 396.527344 519.746094 394.917969 516.21875 C 391.875 509.546875 387.546875 503.433594 384.496094 496.691406 C 381.382812 489.8125 378.328125 482.507812 376.300781 475.230469 C 375.621094 472.792969 371.566406 473.199219 371.789062 475.839844 Z M 371.789062 475.839844 " fill-opacity="1" fill-rule="nonzero"/><path fill="#1E8022" d="M 390.414062 475.425781 C 393.617188 484.253906 393.671875 494.261719 395.433594 503.445312 C 396.792969 510.511719 400.277344 523.960938 408.707031 525.621094 C 411.695312 526.210938 413.570312 523.476562 412.402344 520.8125 C 410.867188 517.3125 407.601562 514.695312 405.871094 511.121094 C 403.992188 507.230469 403.183594 502.71875 402.359375 498.511719 C 400.648438 489.753906 399.316406 481.421875 395.203125 473.40625 C 393.855469 470.78125 389.394531 472.621094 390.414062 475.425781 Z M 390.414062 475.425781 " fill-opacity="1" fill-rule="nonzero"/><path fill="#1E8022" d="M 406.980469 476.949219 C 406.433594 484.625 410.355469 527.425781 424.6875 520.988281 C 426.671875 520.09375 426.746094 517.164062 425.359375 515.773438 C 420.730469 511.136719 418.859375 505.601562 417.050781 499.257812 C 415 492.058594 412.910156 484.421875 412.175781 476.949219 C 411.851562 473.628906 407.21875 473.570312 406.980469 476.949219 Z M 406.980469 476.949219 " fill-opacity="1" fill-rule="nonzero"/><path fill="#1E8022" d="M 425.152344 475.332031 C 426.78125 484.144531 425.449219 493.484375 426.820312 502.429688 C 427.53125 507.058594 432.082031 521.785156 439.542969 516.625 C 440.378906 516.046875 440.84375 515.125 440.570312 514.101562 C 439.90625 511.636719 437.726562 510.175781 436.496094 508.011719 C 434.546875 504.589844 434.050781 500.171875 433.589844 496.328125 C 432.6875 488.832031 432.140625 481.269531 429.5 474.132812 C 428.488281 471.402344 424.621094 472.460938 425.152344 475.332031 Z M 425.152344 475.332031 " fill-opacity="1" fill-rule="nonzero"/><path fill="#1E8022" d="M 442.257812 476.949219 C 443.003906 491.347656 438.507812 508.289062 447.273438 521.089844 C 449.023438 523.648438 453.609375 523.703125 454.351562 520.164062 C 454.769531 518.1875 454.90625 516.207031 454.589844 514.210938 C 454.476562 513.476562 453.566406 512.804688 452.835938 512.875 C 450.1875 513.125 448.769531 515.136719 447.273438 517.179688 C 449.503906 517.179688 451.734375 517.179688 453.960938 517.179688 C 447.507812 504.261719 451.101562 489.863281 447.789062 476.203125 C 447.042969 473.128906 442.089844 473.757812 442.257812 476.949219 Z M 442.257812 476.949219 " fill-opacity="1" fill-rule="nonzero"/><path fill="#1E8022" d="M 456.230469 476.355469 C 455.3125 482.699219 447.230469 515.953125 459.664062 515.609375 C 462.648438 515.53125 463.667969 512.261719 461.914062 510.167969 C 461.746094 509.964844 461.507812 509.296875 461.199219 508.21875 C 460.679688 506.40625 460.699219 504.429688 460.648438 502.5625 C 460.40625 494.019531 461.644531 485.472656 460.613281 476.949219 C 460.339844 474.6875 456.625 473.644531 456.230469 476.355469 Z M 456.230469 476.355469 " fill-opacity="1" fill-rule="nonzero"/><path fill="#1E8022" d="M 469.226562 472.9375 C 467.441406 480.980469 465.121094 488.816406 463.921875 496.996094 C 463.269531 501.441406 460.839844 512.207031 467.277344 513.824219 C 468.886719 514.226562 471.015625 512.996094 470.8125 511.125 C 469.472656 498.628906 473.976562 486.113281 474.246094 473.621094 C 474.3125 470.753906 469.859375 470.101562 469.226562 472.9375 Z M 469.226562 472.9375 " fill-opacity="1" fill-rule="nonzero"/><path fill="#1E8022" d="M 480.820312 477.519531 C 479.835938 482.285156 478.800781 487.019531 478.058594 491.832031 C 477.433594 495.867188 475.585938 500.863281 477.886719 504.511719 C 478.523438 505.523438 479.871094 505.707031 480.742188 504.882812 C 483.582031 502.199219 483.183594 498.101562 483.605469 494.402344 C 484.230469 488.957031 484.566406 483.535156 484.820312 478.0625 C 484.929688 475.773438 481.285156 475.261719 480.820312 477.519531 Z M 480.820312 477.519531 " fill-opacity="1" fill-rule="nonzero"/><path fill="#1E8022" d="M 324.878906 317.09375 C 324.667969 321.269531 325.347656 325.40625 327.039062 329.234375 C 328.433594 332.386719 331.515625 335.792969 335.195312 334.039062 C 336.65625 333.339844 337.019531 331.289062 336.257812 329.980469 C 335.34375 328.410156 333.757812 327.492188 332.820312 325.851562 C 331.300781 323.199219 330.40625 320.125 330.121094 317.09375 C 329.804688 313.761719 325.046875 313.671875 324.878906 317.09375 Z M 324.878906 317.09375 " fill-opacity="1" fill-rule="nonzero"/><path fill="#1E8022" d="M 334.992188 312.652344 C 335.4375 316.023438 335.765625 319.367188 336.460938 322.703125 C 337.070312 325.621094 337.351562 329.996094 340.242188 331.609375 C 342.003906 332.589844 344.097656 331.679688 344.699219 329.796875 C 345.519531 327.226562 343.902344 324.179688 343.175781 321.734375 C 342.199219 318.429688 341.078125 315.222656 339.882812 311.988281 C 338.980469 309.546875 334.597656 309.679688 334.992188 312.652344 Z M 334.992188 312.652344 " fill-opacity="1" fill-rule="nonzero"/><path fill="#1E8022" d="M 341.125 314.285156 C 341.710938 318.394531 342.546875 322.496094 343.914062 326.421875 C 344.675781 328.601562 345.859375 332.914062 349.023438 332.042969 C 352.273438 331.148438 349.878906 326.742188 349.140625 324.980469 C 347.527344 321.140625 346.050781 317.253906 344.929688 313.238281 C 344.226562 310.714844 340.78125 311.84375 341.125 314.285156 Z M 341.125 314.285156 " fill-opacity="1" fill-rule="nonzero"/><path fill="#1E8022" d="M 349.953125 313.761719 C 349.753906 317.007812 349.535156 320.214844 349.710938 323.464844 C 349.847656 326 349.988281 328.730469 352.574219 329.78125 C 353.082031 329.992188 353.816406 329.75 354.175781 329.359375 C 355.925781 327.441406 354.917969 324.816406 354.625 322.472656 C 354.257812 319.582031 354.027344 316.671875 353.851562 313.761719 C 353.695312 311.25 350.101562 311.246094 349.953125 313.761719 Z M 349.953125 313.761719 " fill-opacity="1" fill-rule="nonzero"/><path fill="#1E8022" d="M 399.347656 305.308594 C 398.730469 309.867188 397.898438 314.347656 398.214844 318.96875 C 398.453125 322.445312 399.125 328.011719 403.296875 328.648438 C 404.449219 328.824219 405.867188 328.578125 406.425781 327.375 C 407.96875 324.050781 405.78125 321.128906 405.367188 317.691406 C 404.902344 313.804688 404.824219 309.886719 404.371094 305.992188 C 404.066406 303.394531 399.769531 302.207031 399.347656 305.308594 Z M 399.347656 305.308594 " fill-opacity="1" fill-rule="nonzero"/><path fill="#1E8022" d="M 407.21875 306.449219 C 406.199219 310.074219 404.492188 322.265625 411.457031 321.398438 C 412.695312 321.246094 413.753906 320.472656 413.75 319.101562 C 413.75 317.328125 413.046875 316.046875 412.558594 314.375 C 411.878906 312.050781 411.832031 309.496094 412.027344 307.101562 C 412.257812 304.28125 407.945312 303.855469 407.21875 306.449219 Z M 407.21875 306.449219 " fill-opacity="1" fill-rule="nonzero"/><path fill="#1E8022" d="M 414.144531 306.523438 C 412.824219 311.09375 412.605469 318.023438 416.214844 321.671875 C 418.136719 323.613281 421.15625 321.617188 420.605469 319.113281 C 419.722656 315.140625 417.683594 311.972656 418.320312 307.679688 C 418.722656 304.984375 414.941406 303.769531 414.144531 306.523438 Z M 414.144531 306.523438 " fill-opacity="1" fill-rule="nonzero"/><path fill="#1E8022" d="M 421.703125 308.210938 C 421.367188 311.25 420.84375 314.515625 421.894531 317.464844 C 423.242188 321.246094 429.335938 319.542969 427.90625 315.804688 C 426.964844 313.351562 426.582031 310.8125 426.296875 308.210938 C 425.964844 305.253906 422.027344 305.253906 421.703125 308.210938 Z M 421.703125 308.210938 " fill-opacity="1" fill-rule="nonzero"/></svg>