<svg width="1009" height="202" viewBox="0 0 1009 202" fill="none" xmlns="http://www.w3.org/2000/svg">
<path d="M369.701 177.333C457.579 210.004 533.947 203.861 600.032 174.976C600.749 174.662 601.579 174.673 602.292 174.995C714.21 225.453 812.776 181.815 840.342 155.187C840.917 154.632 841.678 154.367 842.476 154.422C940.335 161.194 1007.98 133.198 1007.64 101.816C1007.27 67.6633 944.043 55.6451 895.809 51.8293C895.303 51.7892 894.822 51.6093 894.41 51.3117C813.19 -7.3488 681.64 12.6603 630.658 23.0282C630.166 23.1282 629.686 23.0854 629.213 22.9175C522.879 -14.8663 403.823 2.28606 353.685 34.653C353.002 35.0939 352.166 35.2009 351.386 34.9715C225.321 -2.11475 138.398 57.6437 109.405 75.5301C108.951 75.8104 108.459 75.929 107.925 75.9161C54.7133 74.6351 -4.53543 105.381 2.05168 128.492C8.6277 151.565 60.7417 158.499 105.302 159.472C105.895 159.485 106.442 159.673 106.913 160.033C155.544 197.17 297.709 220.926 367.252 177.577C367.986 177.12 368.89 177.032 369.701 177.333Z" fill="white" stroke="url(#paint0_linear_622_2007)" stroke-width="1.37034"/>
<defs>
<linearGradient id="paint0_linear_622_2007" x1="1003.98" y1="223.398" x2="934.356" y2="-175.732" gradientUnits="userSpaceOnUse">
<stop stop-color="#1F368D" stop-opacity="0.3"/>
<stop offset="1" stop-color="#1F368D" stop-opacity="0.3"/>
</linearGradient>
</defs>
</svg>
