<svg width="64" height="64" viewBox="0 0 64 64" fill="none" xmlns="http://www.w3.org/2000/svg">
<path d="M47.1332 4.11826L33.6332 15.1637C32.9803 15.6979 32 15.2334 32 14.3898L32 7.33679C32 6.91628 32.2631 6.5407 32.6583 6.397L46.1583 1.48791C46.8104 1.25075 47.5 1.73373 47.5 2.4277L47.5 3.3443C47.5 3.64423 47.3654 3.92833 47.1332 4.11826Z" fill="#DCF8F5" stroke="#1F368D"/>
<path d="M16.8668 4.11826L30.3668 15.1637C31.0197 15.6979 32 15.2334 32 14.3898L32 7.33679C32 6.91628 31.7369 6.5407 31.3417 6.397L17.8417 1.48791C17.1896 1.25075 16.5 1.73373 16.5 2.4277L16.5 3.3443C16.5 3.64423 16.6346 3.92833 16.8668 4.11826Z" fill="#DCF8F5" stroke="#1F368D"/>
<path d="M49.05 37.75L49.05 31.5204C49.05 30.8517 49.3842 30.2272 49.9406 29.8563L55.2406 26.3229C56.5697 25.4369 58.35 26.3896 58.35 27.987L58.35 37.75C58.35 38.8546 57.4545 39.75 56.35 39.75L51.05 39.75C49.9454 39.75 49.05 38.8546 49.05 37.75Z" fill="url(#paint0_linear_902_103)" stroke="#1F368D"/>
<path d="M14.95 37.75L14.95 31.5204C14.95 30.8517 14.6158 30.2272 14.0594 29.8563L8.75943 26.3229C7.43032 25.4369 5.65003 26.3896 5.65003 27.987L5.65002 37.75C5.65002 38.8546 6.54546 39.75 7.65003 39.75L12.95 39.75C14.0546 39.75 14.95 38.8546 14.95 37.75Z" fill="url(#paint1_linear_902_103)" stroke="#1F368D"/>
<path d="M62.669 22.9979L33.669 49.0979C33.0254 49.6771 32 49.2204 32 48.3546L32 29.577C32 29.1681 32.249 28.8004 32.6286 28.6485L61.6286 17.0485C62.2855 16.7858 63 17.2695 63 17.977L63 22.2546C63 22.5381 62.8797 22.8083 62.669 22.9979Z" fill="#FFCBF0" stroke="#1F368D"/>
<path d="M1.33104 22.9979L30.331 49.0979C30.9746 49.6771 32 49.2204 32 48.3546L32 29.577C32 29.1681 31.7511 28.8004 31.3714 28.6485L2.37139 17.0485C1.71453 16.7858 1 17.2695 1 17.977L1 22.2546C1 22.5381 1.12032 22.8083 1.33104 22.9979Z" fill="#FFCBF0" stroke="#1F368D"/>
<path d="M41.3001 41.3C41.3001 47.5 41.3 63 32 63C22.7 63 22.7 47.5 22.7001 41.3C22.7001 36.2339 26.8396 12.5401 28.3537 4.04266C28.6687 2.27536 30.2049 0.999995 32.0001 0.999995C33.7952 0.999996 35.3314 2.27536 35.6464 4.04266C37.1606 12.5401 41.3001 36.2339 41.3001 41.3Z" fill="url(#paint2_linear_902_103)" stroke="#1F368D" stroke-linejoin="round"/>
<defs>
<linearGradient id="paint0_linear_902_103" x1="58.35" y1="39.75" x2="45.3356" y2="34.8913" gradientUnits="userSpaceOnUse">
<stop stop-color="#D3FFAE"/>
<stop offset="1" stop-color="white"/>
</linearGradient>
<linearGradient id="paint1_linear_902_103" x1="5.65002" y1="39.75" x2="18.6644" y2="34.8913" gradientUnits="userSpaceOnUse">
<stop stop-color="#D3FFAE"/>
<stop offset="1" stop-color="white"/>
</linearGradient>
<linearGradient id="paint2_linear_902_103" x1="41.3" y1="63" x2="12.642" y2="57.6505" gradientUnits="userSpaceOnUse">
<stop stop-color="#D3FFAE"/>
<stop offset="1" stop-color="white"/>
</linearGradient>
</defs>
</svg>
