<svg width="13" height="12" viewBox="0 0 13 12" fill="none" xmlns="http://www.w3.org/2000/svg">
<g clip-path="url(#clip0_775_3221)">
<path d="M0.687103 4.83684C0.687103 4.90506 0.700845 5.13019 0.721458 5.19841C0.776427 5.36896 0.893234 5.51904 1.07188 5.64184L3.037 6.99261C3.42178 7.26549 3.5111 7.55202 3.35994 8.00227L3.07135 8.86867C2.92019 9.31211 2.76903 9.75554 2.62474 10.199C2.48731 10.6083 2.62474 10.9903 2.99577 11.195C3.32558 11.3792 3.64165 11.3655 3.96459 11.1472C4.44556 10.8266 4.91279 10.4991 5.38689 10.1717L5.89535 9.81694C6.36258 9.48948 6.61681 9.48948 7.08404 9.81694L7.43446 10.0557C7.94979 10.4105 8.47199 10.772 8.98044 11.1336C9.26216 11.3314 9.53013 11.3314 9.71565 11.2973C9.963 11.2496 10.1829 11.0995 10.2997 10.9153C10.4371 10.697 10.4646 10.4719 10.389 10.2263C10.2241 9.72825 10.0523 9.23024 9.88742 8.73223L9.61945 7.93405C9.50264 7.55202 9.60571 7.25867 9.92865 7.02672C10.5814 6.56964 11.241 6.11939 11.8938 5.66231C12.2167 5.444 12.3679 5.10972 12.2923 4.79591C12.2098 4.42752 11.935 4.18192 11.5433 4.12734C11.4678 4.1137 11.3922 4.1137 11.3166 4.1137H8.98044C8.48573 4.1137 8.25211 3.94997 8.09408 3.47925L7.81237 2.64696C7.66121 2.1967 7.51004 1.74645 7.35201 1.29619C7.26268 1.04377 7.07717 0.845935 6.83668 0.750426C6.58932 0.654917 6.32135 0.661739 6.074 0.791358C5.86099 0.900511 5.7167 1.07788 5.62738 1.33712L4.90592 3.4656C4.74789 3.93633 4.50053 4.10688 4.00581 4.10688H3.33245C2.75529 4.10688 2.17812 4.10688 1.60782 4.10688H1.59408C1.15433 4.10688 0.783298 4.40705 0.687103 4.83684Z" fill="#D3FFAE"/>
<path d="M3.44239 12C3.17442 12 2.90645 11.925 2.65222 11.7817C2.00634 11.4133 1.73837 10.6902 1.97199 9.98067C2.11628 9.53724 2.26744 9.09381 2.4186 8.64355L2.70719 7.78397C2.74154 7.67482 2.74154 7.64071 2.74154 7.63389C2.74154 7.63389 2.72093 7.6066 2.63161 7.53838L2.5629 7.49062L0.680232 6.19443C0.377907 5.98977 0.171775 5.71689 0.0618388 5.40307C0.0206126 5.28028 -0.0274846 4.8846 0.00687054 4.70722H0.0137416C0.171775 3.94315 0.817653 3.39057 1.61469 3.42468C2.18499 3.42468 2.76216 3.42468 3.33245 3.42468H4.00581C4.14323 3.42468 4.17759 3.40421 4.17759 3.40421C4.17759 3.40421 4.20507 3.37692 4.25317 3.24048L4.97463 1.11882C5.11892 0.682209 5.38689 0.368395 5.7648 0.177377C6.18393 -0.0341067 6.67178 -0.0545729 7.09778 0.115979C7.52378 0.28653 7.85359 0.634455 8.00476 1.07107C8.16279 1.52132 8.31395 1.97158 8.46512 2.42183L8.74683 3.25413C8.78805 3.37692 8.81554 3.41103 8.81554 3.41103C8.81554 3.41103 8.83615 3.42468 8.98044 3.42468H11.3166C11.4265 3.42468 11.5365 3.4315 11.6395 3.45196C12.306 3.54747 12.8145 4.00455 12.9588 4.64583C13.0962 5.2257 12.8282 5.84651 12.2785 6.22172C11.6189 6.67198 10.9662 7.12905 10.3134 7.57931C10.2585 7.61342 10.2516 7.63389 10.2447 7.64071C10.2447 7.64071 10.2447 7.668 10.2653 7.7294L10.2928 7.80444L10.5333 8.50711C10.7051 9.00512 10.87 9.50313 11.0349 10.008C11.1792 10.4378 11.1242 10.8744 10.8837 11.27C10.6707 11.618 10.2791 11.8772 9.84619 11.9591C9.40645 12.0478 8.95296 11.9522 8.57505 11.6862C8.0666 11.3246 7.55127 10.9699 7.03594 10.6151L6.68552 10.3764C6.54123 10.274 6.49313 10.2604 6.47939 10.2604C6.47939 10.2604 6.42442 10.2808 6.28013 10.3832L5.77167 10.7379C5.29757 11.0722 4.8166 11.4065 4.33562 11.7271C4.04704 11.9181 3.73784 12.0136 3.43552 12.0136L3.44239 12ZM0.687103 4.83684C0.687103 4.90506 0.700845 5.13019 0.721458 5.19841C0.776427 5.36896 0.893234 5.51905 1.07188 5.64185L3.037 6.99261C3.42178 7.2655 3.5111 7.55202 3.35994 8.00228L3.07135 8.86868C2.92019 9.31211 2.76903 9.75555 2.62474 10.199C2.48731 10.6083 2.62474 10.9903 2.99577 11.195C3.32558 11.3792 3.64165 11.3656 3.96459 11.1472C4.44556 10.8266 4.91279 10.4992 5.38689 10.1717L5.89535 9.81695C6.36258 9.48949 6.61681 9.48949 7.08404 9.81695L7.43446 10.0557C7.94979 10.4105 8.47199 10.772 8.98044 11.1336C9.26216 11.3314 9.53013 11.3314 9.71564 11.2973C9.963 11.2496 10.1829 11.0995 10.2997 10.9153C10.4371 10.697 10.4646 10.4719 10.389 10.2263C10.2241 9.72826 10.0523 9.23025 9.88742 8.73224L9.61945 7.93406C9.50264 7.55202 9.60571 7.25867 9.92865 7.02672C10.5814 6.56965 11.241 6.11939 11.8938 5.66231C12.2167 5.44401 12.3679 5.10973 12.2923 4.79591C12.2098 4.42752 11.935 4.18193 11.5433 4.12735C11.4678 4.1137 11.3922 4.1137 11.3166 4.1137H8.98044C8.48573 4.1137 8.25211 3.94998 8.09408 3.47925L7.81237 2.64696C7.6612 2.19671 7.51004 1.74645 7.35201 1.29619C7.26268 1.04378 7.07717 0.845939 6.83668 0.75043C6.58932 0.654921 6.32135 0.661743 6.074 0.791362C5.86099 0.900515 5.7167 1.07789 5.62738 1.33713L4.90592 3.46561C4.74789 3.93633 4.50053 4.10688 4.00581 4.10688H3.33245C2.75528 4.10688 2.17812 4.10688 1.60782 4.10688H1.59408C1.15433 4.10688 0.783298 4.40705 0.687103 4.83684Z" fill="#1E378C"/>
</g>
<defs>
<clipPath id="clip0_775_3221">
<rect width="13" height="12" fill="white"/>
</clipPath>
</defs>
</svg>
