<svg viewBox="0 0 140 44" fill="none" xmlns="http://www.w3.org/2000/svg">
    <g clip-path="url(#clip0_276_1785)">
        <path
            d="M138.411 31.4693H128.964V24.3813C128.963 24.2438 128.946 24.1069 128.912 23.9737C128.842 23.7264 128.714 23.4991 128.538 23.3103C128.363 23.1215 128.145 22.9765 127.902 22.8872L127.437 22.7059H134.307V25.0586C134.307 25.423 134.453 25.7726 134.713 26.0303C134.972 26.288 135.325 26.4328 135.692 26.4328H137.846V22.6609C137.847 22.2058 137.756 21.7551 137.581 21.3346C137.406 20.9141 137.149 20.532 136.825 20.2101C136.5 19.8882 136.115 19.6329 135.692 19.4587C135.268 19.2845 134.814 19.1948 134.356 19.1948H125.423V31.4693H121.591V26.4088H120.184C119.626 26.4121 119.092 26.6309 118.695 27.0187C118.297 27.4065 118.068 27.9327 118.055 28.4857C118.055 28.4947 118.055 28.5037 118.055 28.5127V44.0001C120.215 43.8757 121.595 42.4101 121.595 40.1953V34.9849H140.001V33.0488C140.001 32.8414 139.96 32.6361 139.88 32.4445C139.801 32.2528 139.684 32.0787 139.536 31.932C139.388 31.7853 139.213 31.669 139.02 31.5896C138.827 31.5102 138.62 31.4693 138.411 31.4693Z"
            fill="#012D74" />
        <path
            d="M130.62 0C129.892 0.00145101 129.183 0.231813 128.595 0.658011C128.007 1.08421 127.57 1.68432 127.348 2.37218L127.281 2.58048H120.795C119.974 2.58048 119.187 2.90398 118.607 3.47981C118.027 4.05564 117.701 4.83663 117.701 5.65098V12.0827H110.641V34.8679H110.817C111.709 34.8667 112.564 34.5146 113.195 33.8887C113.825 33.2628 114.18 32.4143 114.181 31.5292V17.4549C114.18 17.3576 114.172 17.2604 114.157 17.1642C114.093 16.8157 113.927 16.4933 113.681 16.2365C113.435 15.9797 113.119 15.7996 112.771 15.7181L112.389 15.5953H127.249C128.171 15.5953 129.054 15.2321 129.705 14.5858C130.356 13.9394 130.722 13.0627 130.722 12.1486V0H130.62ZM127.177 12.0827H121.24V7.79239C121.239 7.52185 121.165 7.25656 121.025 7.02465C120.884 6.79274 120.683 6.60286 120.443 6.47517L119.72 6.09454H127.177V12.0827Z"
            fill="#012D74" />
        <path
            d="M118.07 19.1917V23.2377L118.147 23.1493C118.272 23.0079 118.425 22.8946 118.597 22.8171C118.769 22.7395 118.956 22.6995 119.145 22.6997H121.584V19.1917H118.07Z"
            fill="#733088" />
        <path
            d="M3.29581 20.9524H12.6572C12.9908 20.953 13.321 20.885 13.6269 20.7527C13.9327 20.6204 14.2077 20.4267 14.4343 20.1837C14.9062 19.6879 15.1688 19.0315 15.1681 18.3495V13.8539H14.1625C14.0341 13.8539 13.9068 13.879 13.7881 13.9278C13.6694 13.9766 13.5616 14.0481 13.4707 14.1383C13.3798 14.2284 13.3078 14.3355 13.2586 14.4533C13.2094 14.5711 13.1841 14.6974 13.1841 14.8249V18.3495C13.1841 18.6926 12.9425 18.9818 12.6587 18.9818H8.28753V12.4377H7.1385C6.91678 12.4381 6.70425 12.5257 6.54746 12.6813C6.39068 12.8369 6.30242 13.0479 6.30202 13.2679V13.8584H3.29581C2.59971 13.8619 1.93306 14.1376 1.44041 14.6257C0.947765 15.1138 0.668821 15.7749 0.664062 16.4658L0.664063 18.3495C0.670007 19.0395 0.949473 19.6996 1.442 20.1867C1.93452 20.6738 2.60049 20.9489 3.29581 20.9524ZM2.64958 16.4658C2.65268 16.2967 2.72176 16.1353 2.84228 16.0157C2.96281 15.8961 3.12539 15.8275 3.29581 15.8244H6.30202V18.9818H3.29581C3.12579 18.9758 2.9642 18.9069 2.84284 18.7885C2.78194 18.7325 2.73334 18.6645 2.70008 18.589C2.66683 18.5135 2.64964 18.4319 2.64958 18.3495V16.4658Z"
            fill="#733088" />
        <path
            d="M25.1223 16.466C25.1164 15.7753 24.8365 15.1147 24.3434 14.6272C23.8503 14.1398 23.1835 13.8647 22.4876 13.8616H17.6649V14.8251C17.6653 15.0927 17.7727 15.3493 17.9636 15.5383C18.1544 15.7274 18.413 15.8336 18.6826 15.8336H22.4876C22.657 15.8409 22.818 15.9091 22.9405 16.0255C23.0013 16.082 23.0497 16.1502 23.083 16.226C23.1162 16.3017 23.1335 16.3834 23.1338 16.466V17.1224H23.1429V18.9821H18.0258C17.7703 18.9821 17.5253 19.0828 17.3446 19.2621C17.164 19.4414 17.0625 19.6846 17.0625 19.9381V20.9526H25.1223V20.6065H25.1404V16.493H25.1223V16.466Z"
            fill="#733088" />
        <path
            d="M77.8373 16.3431C77.8412 16.1742 77.9104 16.0132 78.0306 15.8936C78.0897 15.8337 78.1601 15.7859 78.2379 15.753C78.3156 15.72 78.3991 15.7027 78.4836 15.7018H79.4046V18.3692C79.4105 19.0578 79.6887 19.7167 80.1792 20.2038C80.6698 20.6909 81.3334 20.9674 82.0273 20.9736H83.9252C84.6207 20.9697 85.2867 20.6943 85.7792 20.2069C86.2716 19.7195 86.5511 19.0594 86.557 18.3692V16.3431C86.5534 15.6515 86.275 14.9892 85.7822 14.5001C85.2895 14.0111 84.6221 13.7347 83.9252 13.7312H78.4896C77.793 13.7351 77.1261 14.0116 76.6336 14.5007C76.1412 14.9897 75.8629 15.6518 75.8594 16.3431V22.637H76.8468C76.9779 22.637 77.1077 22.6114 77.2288 22.5616C77.3499 22.5118 77.4599 22.4389 77.5526 22.3469C77.6452 22.2549 77.7188 22.1457 77.7689 22.0255C77.8191 21.9053 77.8449 21.7765 77.8449 21.6465L77.8373 16.3431ZM81.3886 15.6943H83.9237C84.0082 15.6952 84.0917 15.7125 84.1695 15.7455C84.2472 15.7784 84.3176 15.8262 84.3767 15.8861C84.4973 16.0056 84.5671 16.1666 84.5715 16.3357V18.3542C84.568 18.5224 84.4985 18.6825 84.3778 18.8006C84.2571 18.9187 84.0947 18.9854 83.9252 18.9866H82.0258C81.9426 18.9863 81.8602 18.9691 81.7839 18.9361C81.7076 18.9031 81.6388 18.855 81.5819 18.7948C81.4639 18.6773 81.3949 18.5199 81.3886 18.3542V15.6943Z"
            fill="#733088" />
        <path
            d="M33.33 23.7084C33.8235 23.2204 34.102 22.5581 34.1046 21.8667V20.9526H64.7555C65.0996 20.9529 65.4403 20.8851 65.7576 20.7531C66.075 20.6211 66.3626 20.4276 66.6036 20.1839C66.848 19.9434 67.0421 19.6575 67.175 19.3425C67.3079 19.0275 67.377 18.6897 67.3782 18.3482V9.35695H66.3817C66.2511 9.35616 66.1217 9.38101 66.0008 9.43005C65.8799 9.4791 65.77 9.55139 65.6774 9.64275C65.5848 9.73411 65.5113 9.84275 65.4611 9.96241C65.411 10.0821 65.3852 10.2104 65.3852 10.34V18.3422C65.3848 18.5099 65.3175 18.6707 65.1982 18.7894C65.0788 18.9082 64.917 18.9753 64.748 18.9761H60.1534V13.1872H59.0526C58.9364 13.1872 58.8214 13.2099 58.714 13.2541C58.6067 13.2982 58.5092 13.3629 58.427 13.4444C58.3448 13.526 58.2797 13.6228 58.2352 13.7293C58.1907 13.8358 58.1678 13.95 58.1678 14.0654V18.9776H56.2895V14.1478H54.304V18.982H51.9501V14.1478H51.0019C50.7269 14.1482 50.4633 14.2568 50.2688 14.4497C50.0744 14.6427 49.965 14.9043 49.9646 15.1773V18.982H40.6757V16.466C40.6814 16.2972 40.751 16.1367 40.8705 16.0164C40.9276 15.954 40.9977 15.9044 41.0758 15.871C41.1539 15.8377 41.2384 15.8213 41.3234 15.8231H44.7388C44.8933 15.8233 45.0464 15.7933 45.1892 15.7347C45.332 15.6761 45.4617 15.5901 45.571 15.4817C45.6802 15.3732 45.7669 15.2445 45.8259 15.1027C45.8849 14.961 45.9152 14.8091 45.915 14.6558V13.8541H41.328C40.6311 13.8576 39.9637 14.1339 39.471 14.623C38.9782 15.1121 38.6998 15.7744 38.6962 16.466V18.982H34.1046V16.466C34.101 15.7744 33.8226 15.1121 33.3298 14.623C32.8371 14.1339 32.1697 13.8576 31.4729 13.8541H29.439C28.7437 13.86 28.0787 14.1373 27.5879 14.6261C27.097 15.115 26.8199 15.7759 26.8163 16.466V18.3482C26.8219 19.037 27.0999 19.696 27.5905 20.1832C28.0811 20.6704 28.745 20.9467 29.439 20.9526H32.1266V21.8667C32.1258 21.9506 32.1082 22.0335 32.0751 22.1106C32.0419 22.1877 31.9938 22.2576 31.9334 22.3163C31.8129 22.4357 31.6506 22.5044 31.4804 22.5081H26.9824C26.8514 22.5081 26.7216 22.5337 26.6005 22.5835C26.4794 22.6333 26.3694 22.7062 26.2767 22.7982C26.184 22.8902 26.1105 22.9994 26.0603 23.1196C26.0102 23.2397 25.9844 23.3686 25.9844 23.4986V24.4787H31.4729C32.1701 24.4769 32.8381 24.2004 33.33 23.7099M29.439 18.9835C29.272 18.9773 29.1135 18.9088 28.9951 18.7917C28.9333 18.7341 28.8843 18.6644 28.851 18.5871C28.8177 18.5097 28.801 18.4263 28.8018 18.3422V16.466C28.803 16.2978 28.8702 16.1367 28.9892 16.0169C29.1082 15.8971 29.2696 15.8281 29.439 15.8246H31.4729C31.6434 15.8281 31.8059 15.8974 31.9258 16.0179C31.9862 16.0766 32.0344 16.1465 32.0675 16.2236C32.1007 16.3008 32.1182 16.3836 32.1191 16.4675V18.9835H29.439Z"
            fill="#733088" />
        <path
            d="M71.0525 9.12452H70.2463C70.091 9.12393 69.9372 9.15376 69.7936 9.21231C69.65 9.27087 69.5195 9.35698 69.4095 9.46572C69.2995 9.57445 69.2122 9.70367 69.1527 9.84596C69.0931 9.98825 69.0625 10.1408 69.0625 10.2949V20.9525H71.048L71.0525 9.12452Z"
            fill="#733088" />
        <path
            d="M94.9888 18.982V16.466C94.9946 16.2974 95.0636 16.1371 95.1821 16.0164C95.2397 15.9544 95.3098 15.9051 95.3878 15.8718C95.4659 15.8385 95.5501 15.8219 95.6351 15.8231H99.9745V13.854H95.6336C94.9367 13.8575 94.2694 14.1339 93.7766 14.6229C93.2838 15.112 93.0054 15.7743 93.0018 16.466V18.982H90.0243V13.854H88.0388V21.8667C88.0364 22.0344 87.97 22.1951 87.8531 22.3162C87.7929 22.3769 87.7212 22.425 87.6422 22.458C87.5631 22.4909 87.4783 22.5079 87.3926 22.508H85.4297V24.4786H87.3926C88.0892 24.4751 88.7563 24.199 89.249 23.7102C89.7417 23.2215 90.0203 22.5596 90.0243 21.8682V20.9541H102.022V18.982H94.9888Z"
            fill="#733088" />
        <path d="M8.07022 21.3793L6.64062 22.7981L8.07022 24.2169L9.49982 22.7981L8.07022 21.3793Z" fill="#733088" />
        <path d="M11.039 21.3797L9.60938 22.7986L11.039 24.2174L12.4686 22.7986L11.039 21.3797Z" fill="#733088" />
        <path d="M5.49991 9.33946L4.07031 10.7583L5.49991 12.1771L6.9295 10.7583L5.49991 9.33946Z" fill="#733088" />
        <path d="M8.46866 9.33898L7.03906 10.7578L8.46866 12.1766L9.89825 10.7578L8.46866 9.33898Z" fill="#733088" />
        <path d="M88.9296 9.89952L87.5 11.3184L88.9296 12.7372L90.3592 11.3184L88.9296 9.89952Z" fill="#733088" />
        <path
            d="M7.78186 30.1791H2.95018C2.72539 30.1787 2.50995 30.0898 2.35114 29.9319C2.19233 29.774 2.10313 29.56 2.10313 29.3369V29.1256C2.10293 29.0005 2.12759 28.8766 2.17568 28.761C2.22377 28.6454 2.29437 28.5403 2.38342 28.4518C2.47247 28.3633 2.57823 28.2931 2.69466 28.2451C2.81108 28.1972 2.93588 28.1726 3.06192 28.1726H6.98765C7.24155 28.173 7.48496 28.2731 7.66464 28.4512C7.84432 28.6292 7.94564 28.8706 7.94643 29.1226V29.1736H9.29326V29.1226C9.29126 28.5155 9.04653 27.9339 8.61281 27.5057C8.1791 27.0775 7.59187 26.8377 6.9801 26.8389H3.06192C2.45107 26.8397 1.86548 27.0808 1.43355 27.5095C1.00162 27.9382 0.758612 28.5194 0.757812 29.1256V29.3369C0.758212 29.9144 0.989432 30.4682 1.40074 30.8767C1.81204 31.2851 2.36982 31.515 2.95169 31.5158H7.78337C7.94355 31.5158 8.09716 31.579 8.21043 31.6914C8.32369 31.8038 8.38732 31.9562 8.38732 32.1152V32.6742C8.38732 32.8981 8.29781 33.1128 8.13844 33.2713C7.97906 33.4297 7.76284 33.5189 7.53725 33.5193H2.95471C2.72912 33.5189 2.51291 33.4297 2.35353 33.2713C2.19415 33.1128 2.10464 32.8981 2.10464 32.6742V32.5183H0.757812V32.6757C0.758611 33.2537 0.990327 33.8078 1.40215 34.2165C1.81398 34.6253 2.3723 34.8552 2.95471 34.856H7.53725C8.11966 34.8552 8.67799 34.6253 9.08981 34.2165C9.50164 33.8078 9.73335 33.2537 9.73415 32.6757V32.1167C9.73375 31.603 9.52794 31.1103 9.1619 30.7471C8.79586 30.3838 8.29951 30.1795 7.78186 30.1791Z"
            fill="#733088" />
        <path
            d="M34.1195 27.3394V32.6022C34.1191 32.8485 34.0203 33.0846 33.8448 33.2588C33.6694 33.4329 33.4315 33.5309 33.1833 33.5313H28.6219C28.3738 33.5309 28.1359 33.4329 27.9604 33.2588C27.7849 33.0846 27.6862 32.8485 27.6858 32.6022V27.5417C27.6858 27.3555 27.6114 27.177 27.4789 27.0452C27.3464 26.9135 27.1667 26.8393 26.9792 26.8389H26.3359V32.6022C26.3357 32.8996 26.3946 33.1942 26.5092 33.469C26.6238 33.7438 26.7918 33.9935 27.0037 34.2038C27.2156 34.4141 27.4672 34.5808 27.7441 34.6946C28.021 34.8083 28.3177 34.8667 28.6174 34.8665H33.1788C33.4785 34.8667 33.7754 34.8083 34.0523 34.6946C34.3293 34.5809 34.581 34.4141 34.793 34.2039C35.005 33.9936 35.1732 33.7439 35.2879 33.4691C35.4027 33.1943 35.4618 32.8997 35.4618 32.6022V26.8389H34.6177C34.5516 26.8389 34.4861 26.8518 34.425 26.877C34.3639 26.9022 34.3084 26.9391 34.2617 26.9856C34.215 27.0321 34.1779 27.0872 34.1528 27.148C34.1276 27.2087 34.1147 27.2737 34.1149 27.3394"
            fill="#733088" />
        <path
            d="M45.4355 26.8372H39.4141V34.8663H45.4355C46.2585 34.8651 47.0474 34.5401 47.6293 33.9626C48.2112 33.3851 48.5387 32.6021 48.5399 31.7853V29.9181C48.5387 29.1014 48.2112 28.3184 47.6293 27.7409C47.0474 27.1633 46.2585 26.8383 45.4355 26.8372ZM47.1931 31.7823C47.1927 32.2448 47.0074 32.6883 46.6778 33.0153C46.3483 33.3423 45.9015 33.5262 45.4355 33.5266H40.7549V28.1724H45.4355C45.9015 28.1728 46.3483 28.3567 46.6778 28.6837C47.0074 29.0107 47.1927 29.4542 47.1931 29.9166V31.7823Z"
            fill="#733088" />
        <path
            d="M52.3281 27.3978V34.856H53.1238C53.2687 34.856 53.4078 34.7994 53.5109 34.6985C53.614 34.5975 53.673 34.4603 53.675 34.3166V26.8389H52.8913C52.742 26.8389 52.5987 26.8978 52.4931 27.0026C52.3875 27.1074 52.3281 27.2496 52.3281 27.3978Z"
            fill="#733088" />
        <path
            d="M18.6303 26.8762H17.149L12.5786 34.1666C12.5348 34.2349 12.5104 34.3136 12.508 34.3945C12.5056 34.4754 12.5252 34.5554 12.5648 34.6261C12.6044 34.6969 12.6624 34.7557 12.7329 34.7964C12.8034 34.8371 12.8836 34.8582 12.9651 34.8574H13.7306L15.076 32.71H20.6882L22.0336 34.8574H23.0467C23.1034 34.8573 23.159 34.8422 23.2078 34.8136C23.2567 34.785 23.2969 34.744 23.3245 34.6949C23.352 34.6457 23.3659 34.5901 23.3645 34.5339C23.3632 34.4776 23.3468 34.4227 23.317 34.3749L18.6303 26.8762ZM15.8415 31.4842L17.8753 28.2249L19.9167 31.4842H15.8415Z"
            fill="#733088" />
        <path
            d="M69.6377 26.8762H68.155L63.5453 34.2385C63.5071 34.2999 63.4861 34.3702 63.4845 34.4423C63.4829 34.5144 63.5007 34.5856 63.5361 34.6485C63.5715 34.7115 63.6232 34.7639 63.6859 34.8004C63.7486 34.8368 63.8199 34.856 63.8926 34.8559H64.7442L66.0895 32.7085H71.7033L73.0471 34.8559H73.9304C73.9999 34.8561 74.0682 34.8379 74.1282 34.803C74.1882 34.7682 74.2378 34.718 74.2716 34.6578C74.3055 34.5975 74.3226 34.5294 74.321 34.4604C74.3194 34.3914 74.2992 34.3241 74.2626 34.2655L69.6377 26.8762ZM66.855 31.4842L68.8964 28.2249L70.9363 31.4842H66.855Z"
            fill="#733088" />
        <path
            d="M85.6326 33.5388H79.9071L86.2758 28.0572V26.8389H77.7992V27.5402C77.8 27.7082 77.8678 27.869 77.9878 27.9875C78.1078 28.106 78.2702 28.1726 78.4394 28.1726H84.0804L77.6875 33.6797V34.8785H86.3166V34.2222C86.3168 34.1329 86.2992 34.0444 86.2649 33.9619C86.2306 33.8794 86.1803 33.8044 86.1168 33.7412C86.0532 33.678 85.9778 33.6278 85.8947 33.5936C85.8116 33.5594 85.7225 33.5418 85.6326 33.5418"
            fill="#733088" />
        <path
            d="M96.4182 33.5956L92.5046 26.8806H90.9766V34.8558H91.6258C91.8108 34.8558 91.9883 34.7829 92.1191 34.653C92.2499 34.5232 92.3234 34.3471 92.3234 34.1635V29.2378L95.5984 34.8558H97.2396L100.513 29.2378V34.1485C100.513 34.3358 100.588 34.5155 100.721 34.6481C100.855 34.7807 101.035 34.8554 101.224 34.8558H101.857V26.8806H100.332L96.4182 33.5956Z"
            fill="#733088" />
    </g>
    <defs>
        <clipPath id="clip0_276_1785">
            <rect width="139.333" height="44" fill="white" transform="translate(0.664062)" />
        </clipPath>
    </defs>
</svg>